<svg width="39" height="43" viewBox="0 0 39 43" fill="none" xmlns="http://www.w3.org/2000/svg">
<path d="M37.6717 10.332L20.1313 0.16969C19.7409 -0.0565635 19.259 -0.0565635 18.8686 0.16969L1.32107 10.3319C0.934235 10.556 0.69278 10.9734 0.69278 11.4208C0.69278 11.4233 0.693032 11.4259 0.693032 11.4283V31.5782C0.693032 32.0299 0.938518 32.4527 1.33383 32.6753L18.8687 42.8303C19.0576 42.9397 19.2823 43 19.5001 43C19.7274 43 19.9496 42.9356 20.1315 42.8303L37.6592 32.6752C37.6621 32.6735 37.665 32.6718 37.6679 32.6701C38.0742 32.377 38.2931 32.1307 38.2992 31.5934C38.2993 31.5883 38.2997 31.5834 38.2997 31.5783V11.4285C38.2997 11.4259 38.3 11.4234 38.3 11.421C38.3 10.9731 38.0584 10.5557 37.6717 10.332ZM18.2406 39.5554L4.48174 31.5839L15.0889 25.501C15.6923 25.155 15.9009 24.3853 15.5548 23.782C15.2089 23.1786 14.4393 22.97 13.8358 23.316L3.21164 29.4042V13.5978L18.2406 22.2289V39.5554ZM19.5 20.0475L4.47989 11.4172L19.5 2.71492L34.5201 11.4172L19.5 20.0475ZM35.7891 29.4042L25.1642 23.316C24.5608 22.97 23.7912 23.1785 23.4452 23.7819C23.0991 24.3853 23.3077 25.1549 23.9111 25.5009L34.5183 31.5837L20.7593 39.5553V22.2289L35.789 13.5978V29.4042H35.7891Z" fill="#F78CB6"/>
</svg>
